<svg id="Layer_1" xmlns="http://www.w3.org/2000/svg" viewBox="0 0 190 190"><style>.st0{fill:#FCC551;} .st1{fill:#E6A649;} .st2{fill:#EC6B69;} .st3{fill:#FFFFFF;} .st4{fill:#DFF0F2;} .st5{fill:#002933;} .st6{fill:#86CCD2;} .st7{font-family:&apos;Helvetica&apos;;} .st8{font-size:35.0205px;}</style><circle class="st0" cx="95" cy="95" r="94"/><path class="st1" d="M188.9 99.3L143.6 54l-92.9 94.5 40.4 40.4c1.3.1 2.6.1 3.9.1 50.5 0 91.7-39.8 93.9-89.7z"/><path class="st2" d="M145.4 58.3c0-3.4-2.7-6.1-6.1-6.1H50.7c-3.4 0-6.1 2.7-6.1 6.1v17.9c0 3.4 2.7 6.1 6.1 6.1h88.6c3.4 0 6.1-2.7 6.1-6.1V58.3z"/><path class="st3" d="M50.7 82.3h88.6v66.2H50.7z"/><path class="st4" d="M50.7 82.3h88.6v7.3H50.7z"/><path class="st5" d="M76.9 43.9c0-2.3-1.8-4.1-4.1-4.1s-4.1 1.8-4.1 4.1v17.8c0 2.3 1.8 4.1 4.1 4.1s4.1-1.8 4.1-4.1V43.9zM113.1 43.9c0-2.3 1.8-4.1 4.1-4.1s4.1 1.8 4.1 4.1v17.8c0 2.3-1.8 4.1-4.1 4.1s-4.1-1.8-4.1-4.1V43.9z"/><path class="st4" d="M139.3 128.1v20.4h-20.4z"/><path class="st6" d="M118.9 148.5v-20.4h20.4z"/><text transform="translate(56.044 121.48)" class="st7 st8">1990</text></svg>