<svg id="Layer_1" xmlns="http://www.w3.org/2000/svg" viewBox="0 0 190 190"><style>.st0{fill:#EC6B69;} .st1{fill:#D84C51;} .st2{fill:#DBDEE2;} .st3{fill:#FFFFFF;} .st4{fill:none;} .st5{fill:#FCC551;} .st6{fill:#86CCD2;} .st7{fill:#0B6C85;}</style><circle class="st0" cx="95" cy="95" r="94"/><path class="st1" d="M189 96.8l-39.5-39.5-108.9 68.9 63.4 62.3c47.1-4.4 84.1-43.7 85-91.7z"/><path class="st2" d="M151.3 61.7c0-3.4-2.8-6.2-6.2-6.2H44.9c-3.4 0-6.2 2.8-6.2 6.2v60.1c0 3.4 2.8 6.2 6.2 6.2h100.2c3.4 0 6.2-2.8 6.2-6.2V61.7z"/><path class="st3" d="M44.9 61.7h100.2v60.1H44.9z"/><path class="st4" d="M67.5 78.9z"/><path class="st5" d="M49.7 104.8h14.7v12.8H49.7z"/><path class="st6" d="M68.7 88.3h14.7v29.3H68.7z"/><path class="st0" d="M87.8 91.9h14.7v25.8H87.8z"/><path class="st7" d="M106.8 66.5h14.7v51.1h-14.7z"/><path class="st0" d="M125.8 91.9h14.7v25.8h-14.7z"/></svg>