<svg xmlns="http://www.w3.org/2000/svg" viewBox="-750 1004 190 190"><style>.st0{fill:#0B6C85;} .st1{fill:#00576E;} .st2{fill:#FCC551;}</style><g id="Layer_1"><path class="st0" d="M-561 1099c0 45.1-31.7 82.7-74 91.9-6.4 1.4-13.1 2.1-20 2.1-51.9 0-94-42.1-94-94s42.1-94 94-94c48.2 0 87.9 36.2 93.3 82.9.5 3.6.7 7.3.7 11.1z"/><path class="st1" d="M-561.7 1087.9c.4 3.6.7 7.4.7 11.1 0 45.1-31.7 82.7-74 91.9l-78.4-77.9 102.6-24.5 12.2-12.3 5.5-7.5 7.3-5.4 24.1 24.6z"/></g><path class="st2" d="M-619 1128.9s1.8-.1 1.9-.8.3-.9.9-.9c.6 0 1.6-.1 1.8.7.3.8 1.6 1.1 2 1.5.4.4 1.1 1 1 2 0 1-.1 2.3.2 2.3.3 0 .6-.6.9 0 .3.6-.6.8 0 1.8.6.9 1.1 1.2 1.4 1 .2-.2.4-.3.7.3.3.6.5.7.8 1.1s.4 1.2 1 1.6c.6.4 1 .8 1.3 1.2.3.4 1.2 1 1.9.7.7-.3.7-.7.5-1.2-.1-.5.2-1.5.3-2 0-.6-.1-1.3 0-2 .1-.8-.6-2.2-1.4-3.3s-3.8-4.4-4.3-6.7-.3-2.6-.4-3.3c-.1-.7-.3-.9-.1-1.4.1-.5 0-1.3.3-2s.6-1.3.6-1.7c0-.5-.2-1.1.4-1.2.5-.1 1.4-.3 1.9-1.1s.3-.9.7-1.4c.4-.5 1.4-1.7 1.6-2.6.3-.8.7-1.3 1.5-1.6.7-.3 1.1-.8 1.2-1.4s.8-2.1 1.8-2.3c.9-.2.9-.1 1.2-.5.3-.4-.1-.8-.4-.6-.3.2-1 .7-1.1.2s.7-.2.8-.8c.1-.5 0-.5-.4-.5s-.1-.9.4-.9c.4 0 .9.6 1.5-.4.6-.9.3-1.8 0-1.9-.3-.1-.3 1.1-1 .7s-1.4.8-1.7 0c-.3-.7-.1-1.1.5-1 .6.1.8-.2 1-.4.2-.2.6-.2.4-.6-.2-.5-.4-.9-.4-1.2 0-.3-.4-.6-.8-.4s-2-.5-1.5-.9c.6-.4 1.3-.8.4-1.1s-1.1-.9-.6-.8c.5.1 1-.2.3-.6-.6-.3-.5-.3-.2-.5s0-.5-.3-.8-.2-1-.5-1.5-.6-1-.1-1.5.8-1 .8-1 .5 1.1.2 1.4-.5.7-.1.9.6.4.5.7c0 .3-.1.6.4.8.5.2.4.6.5.8s.2.4.5.4.4.3.2.6-.4.4-.3.8c.1.4.2.6.2.6s.8-1.1.7-1.7.3-1.8.2-2.5c-.1-.7-.2-.8-.9-1.2-.7-.4-.9-1.7-.9-1.7s1 .2 1.3.4.4.8.4.8.9-.7.9-1.7.2-1.6.4-2.1.3-1.2.1-1.3c-.2 0-1 .2-1-.5.1-.7.7-2.8 2.5-3.7 1.8-.9 2.6-1.2 2.9-1.8s.4-1.2.4-1.2.2.1.4.3c.2.2.6.2.8-.1l.3-.6s.5.2.7-.1c.2-.3 1.1-.6 1.1-1.1s-1.2-.8-1.2-.8-.1.3.3.6.1 1.1-.6 1c-.7-.1-.8-.9-1.2-1.1-.4-.1-.9-.2-.8-1s.3-.6-.1-.9c-.4-.3-.3-1 .1-2.2.4-1.2.5-1.8 1.1-2.3.6-.5 1.1-1.1 1.2-1.5.1-.5-.3-1.3.8-1.7s2.2-1.3 2.4-1.7c.2-.4.5-1.4-.5-1.7-1-.3-1.9-1-2.4-1.9-.5-.9-1-2.1-1.1-2.7-.2-.6-.4-.6-.8-.8-.4-.2-.7-.4-1 .2-.3.6-2.1.3-2.1.3s-.8 1.7-.7 3.8c.1 2.1.4 3.9-.3 4.6-.7.7-.4 1-1.5 1.4-1.1.4-7 1.9-7.8 3.3-.8 1.5-.7 2-1.2 2.7-.6.7-.7.8-.2 1.1.5.2 1.4 1.2.5 2.2-1 1-2 1.6-3.1 1.8s-3.1.7-3.1.7.2.9.7 1.3-.3 1.1-1.4 2.3c-1.1 1.1-3.5 3.1-4.4 3.9-.9.8-2 1.4-2.6 1.3s-.6-.3-1.3-.4c-.7-.1-.8-.3-.4-.7.4-.4.6-2 .5-2.5s.4-.7.6-.8.6-.9-.2-2.5c-.8-1.5-1.4-1.6-1.9-1.2-.4.4-.5 1.2-1.2 1.3-.6 0-.7-.8-.1-2 .5-1.1.8-1.7.4-2.1-.4-.5-.5-.7-.5-1 0-.4-.6-.9-1.4-1s-2-.2-2.4.3.1 2.5-.3 2.6-.6.3-.7-.1c-.2-.4-.3-.8-.3-.8s-1 .5-1.1 1.2c-.1.7.2 2 0 2.7-.2.6-.3 1.6.1 1.9.4.4 1.2 1.4.9 2.7-.3 1.3-.1 2.5-1.5 3.4-1.4.9-2.1-.6-2.1-1.8s-.1-1.2-.4-2c-.4-.8-.6-2.6-.1-3.5.4-.9.3-1.6.6-2.3.3-.8.4-1.7.4-1.7s-.4.3-.7.8-.3.9-.6 1.2c-.3.4-.7.5-.7.5s-.4-1.7.4-2.8c.8-1 1.2-2.2 1.2-2.2s.5-.2.7 0c.3.3.4.7.4.7s1-1.3 1.6-1.7c.6-.4.9-.6 1.4-.4.5.2 1.2.6 1.2.2 0-.5.1-.6.4-.4.4.1.7.3.8 0 .1-.3.2-.3-.2-.4-.4-.1-.7-.6-.7-.6s-.9.7-1.3.3-.6-1.2-.6-1.2-1.1.5-1.7.8c-.6.2-1.2 1.2-1.7 1.1s-1.2-.3-1.6-.2c-.4.1-.7-.9-1.4-.9s-.9.1-1 .2c-.1.1-.3-.9.3-1.2.6-.3.8-.8.8-1.1-.1-.2-1.4.3-1.8.9-.4.5-.7 1-1.2 1.2-.5.3-1.2.7-1.5 1-.3.3-.6.8-1.3.8h-1v-1.1s-1.1.3-1.4.6c-.3.3-.5.3-.9.3s-.4-.4.2-.9c.6-.5 1.3-1.2 1.7-2 .4-.8 2.5-1.8 2.5-1.8s-1.2-.5-1.7-.3-.5.2-1-.1c-.5-.3-1.1.6-1.3.5-.3-.1-1-.8-1.3-.8-.3 0-1.1.4-1.2-.1-.1-.5-.2-.9-.5-.7-.4.2-1.3.5-1.9.3-.6-.2-1.1-.7-1.7-.5s-.8 0-1.1-.8c-.3-.7-.7-1.3-.9-.7-.2.6-.3.9-1.3.9s-12 0-19.4.1c-15.4.1-40.7-7.9-40.7-7.9s1.1.8.9 1.4c-.2.6-.4.7-.2 1.1.2.5 0 .6.2 1s.1.8-.1.9-.7.1-.6.7c.1.7-.2 1.4-1 1.3-.8-.1-1-1.2-1-1.2s.8.4 1.1 0c.3-.4.2-.7.2-.7s-.7-.4-.2-.7c.6-.3.6-.5.6-.5s-.8-.4-1.3-.7c-.5-.2-1.5-.5-2-.8l-.7-.7s-.6.4-.4 1.6.5 3.2.1 4.4c-.4 1.1-.8 2.1-.8 3.2s-.7 1.5-1 2.1-1 3.1-1.7 4.1c-.7.9-.8 1-1.1 1.7-.4.7-.5 1.5-.6 2.2-.1.7.1 2 0 2.4s-.5 1.4-.5 2.1c.1.7 0 1.3-.4 1.5-.4.2-.8.3-.8.8s.3.9.6 1.4.4 2 .2 2.5-.5 1.5 0 2.5.8 1.2.7 1.6-.4.6 0 1.1.7.9.8.6c.1-.4.4-.6.4-.6s.4.6.1 1.1c-.4.5-.8 2 .1 2.8s.9 1 .6 1.3c-.3.2-.6.9 0 1.8s.2 1.5.7 2c.6.5 1.3 1.8 1.2 2.5s-.3 1.5-.1 1.8.5.3 1.4.6c.9.4 1.4.8 2 1.7.6.9 1 1 1.5 1s.2.9 1.4 1.4c1.1.5 1.9 2.8 1.9 3.3v1.3s2.3.5 2.7.5c.4 0 .5 0 .9-.1.4 0 3 .5 3 .5l.1.5 10.1 5.9 8.5 1 .1-1.6s4 .3 4.4.4.7.2.8.4.2.5.6.7.4.5.6.9c.2.4.9 1 1.5 1.4.6.4 1.1.8 1.5 2.3s.5 1.7.8 1.9c.3.2.5 1.1 1.3 1.2.8.1 1.2.6 1.6.9.4.3.8.5 1 .1.2-.4.8-.3 1-.9.2-.6.9-1.2 1.8-1.4.8-.2 2 .1 2.6 1s.9 1 1.2 1.6c.3.5.9 1.6 1.5 2.2.6.6 1.6 1.5 2.1 2.4.6.9.4 1.7.8 2.3.4.6.4 1.8.9 2 .5.2 1.4.8 1.7.8s.6 0 .8.2c.2.2.7.5 1.1.3s.6.1 1.1.2 1.1-.3 1.1-.3-.8-.3-.6-.8c.1-.5 0-.7-.3-1.1s-.1-1.1 0-1.5c.1-.4.1-.9.1-1.4-.1-.5.2-1.7 1-2.3.8-.6.6-1 1.6-1.9 1-.9 1.1-.5 1.5-.4s1.8-.5 2.2-1.2c.4-.7.8-1.4 1.7-1.5 1-.1 1.3-.5 1.7-.8s2.2-.9 3.2-.6c1 .3 1.9.5 2.2.3s.3-.7.9-.8c.6-.1 1.7.5 1.7.5s-.1-.5-.5-.8-.1-.7-.1-.7 1.3.3 1.3.9c.1.6-.4 1.5-.4 1.5s.6.8 1 .6c.3-.2.6-.7.8-.6.2 0 .9.4 1.3.2.3-.2.5-.5.4-.8 0-.3-.1-.7-.4-.7-.2-.1-.6-.2-.4-.5s1.1.1 1.1.4.3.6.8.8c.5.1 1.1.9 1.1.9s.3 0 .7-.5c.3-.4-.3-.9-.6-.9-.3-.1-.9-.1-1-.6 0-.5 1-.8 1-.8s-.1-.5-.3-.6c-.3-.1-.6-.1-.8.1-.2.2-.6.3-.7.1s0-.6-.1-.7-.4.1-.6.2c-.2.1-.6.3-1.2-.2l-.5-.6s1.3-.4 2-.1c.6.2 1.3.5 2 0s.4-.5 2.1-.7c1.7-.2 3.4-.1 4.2-.5.8-.4 1.4-.9 2.4-.7 1 .3 1.5 0 1.7.4s.3.7.6.7c.3-.1.8.5.8.5z" id="Layer_2"/></svg>