<svg id="Layer_1" xmlns="http://www.w3.org/2000/svg" xmlns:xlink="http://www.w3.org/1999/xlink" viewBox="0 0 190 190"><style>.st0{fill:#86CCD2;} .st1{fill:#2CA9B2;} .st2{fill:#EC6B69;} .st3{fill:#CCCCCC;} .st4{clip-path:url(#SVGID_2_);} .st5{fill:#FFFFFF;}</style><circle class="st0" cx="95" cy="95" r="94"/><path class="st1" d="M95 152.6l32 30.8c30.3-11 53.2-37 59.9-68.9L118.5 46 95 152.6z"/><path class="st2" d="M131.3 73.7c0 35-36.3 78.8-36.3 78.8s-36.3-46.1-36.3-78.8C58.7 53.6 75 37.4 95 37.4c20.1 0 36.3 16.3 36.3 36.3z"/><circle class="st3" cx="95" cy="74.8" r="30.5"/><defs><circle id="SVGID_1_" cx="95" cy="74.8" r="24.7"/></defs><clipPath id="SVGID_2_"><use xlink:href="#SVGID_1_" overflow="visible"/></clipPath><g class="st4"><path class="st5" d="M148.184 90.75l-95 .375-.018-4.6 95-.374zM148.256 99.982l-95 .374-.018-4.6 95-.374zM148.328 109.113l-95 .375-.018-4.6 95-.375zM148.1 54.1v-4.6l-95 .4V82l95-.4V77l-52.1.2v-4.6l52.1-.2v-4.6L96 68v-4.6l52.1-.2v-4.6l-52.1.3v-4.6l52.1-.2zm-64.2 3.1l.7 2.1h2.2L85 60.7l.7 2.1-1.8-1.3-1.8 1.3.7-2.1-1.8-1.3h2.2l.7-2.2zm-3.2 10.9l-1.8-1.3-1.8 1.3.7-2.1-1.8-1.3h2.2l.7-2.1.7 2.1h2.2L80 66l.7 2.1zM78.2 54l.7-2.1.7 2.1h2.2L80 55.3l.7 2.1-1.8-1.3-1.8 1.3.7-2.1-1.9-1.3h2.3zM74 57.3l.7 2.1h2.2l-1.8 1.3.7 2.1-1.8-1.3-1.8 1.3.7-2.1-1.8-1.3h2.2l.7-2.1zm-3.1 10.9L69 66.9l-1.8 1.3.7-2.1-1.8-1.3h2.2l.7-2.1.7 2.1h2.2l-1.8 1.3.8 2.1zM68.3 54l.7-2.1.7 2.1h2.2l-1.8 1.3.7 2.1-1.8-1.2-1.8 1.3.7-2.1-1.8-1.3 2.2-.1zm-4.2 3.3l.7 2.1H67l-1.8 1.3.7 2.1-1.8-1.3-1.8 1.3.7-2.1-1.8-1.3h2.2l.7-2.1zm-5.7-3.2l.7-2.1.7 2.1H62l-1.8 1.3.7 2.1-1.8-1.3-1.8 1.3.7-2.1-1.8-1.3h2.2zm.1 10.7l.7-2.1.7 2.1h2.2l-1.8 1.3.7 2.1-1.8-1.3-1.8 1.3.7-2.1-1.8-1.3h2.2zM61 78.9l-1.8-1.3-1.8 1.3.7-2.1-1.8-1.3h2.2l.7-2.1.7 2.1h2.2l-1.8 1.3.7 2.1zm3.2-6.7l-1.8 1.3.7-2.1-1.8-1.3h2.2l.7-2.1.7 2.1h2.2l-1.8 1.3.7 2.1-1.8-1.3zm6.7 6.7l-1.8-1.3-1.8 1.3.7-2.1-1.8-1.3h2.2l.7-2.1.7 2.1H72l-1.8 1.3.7 2.1zm3.2-6.7l-1.8 1.3.7-2.1-1.8-1.3h2.2L74 68l.7 2.1h2.2l-1.8 1.3.7 2.1-1.7-1.3zm6.7 6.6L79 77.5l-1.8 1.3.7-2.1-1.9-1.3h2.2l.7-2.1.7 2.1h2.2L80 76.7l.8 2.1zm3.1-6.6l-1.8 1.3.7-2.1-1.8-1.3h2.2l.7-2.1.7 2.1h2.2L85 71.4l.7 2.1-1.8-1.3zm6.7 6.6l-1.8-1.3-1.8 1.3.7-2.1-1.8-1.3h2.2l.7-2.1.7 2.1h2.2l-1.8 1.3.7 2.1zM89.9 66l.7 2.1-1.8-1.3-1.8 1.3.7-2.1-1.8-1.3h2.2l.7-2.1.7 2.1h2.2L89.9 66zm-.1-10.7l.7 2.1-1.8-1.3-1.8 1.3.7-2.1-1.8-1.3H88l.7-2.1.7 2.1h2.2l-1.8 1.3z"/></g></svg>