<svg id="Layer_1" xmlns="http://www.w3.org/2000/svg" viewBox="0 0 190 190"><style>.st0{fill:#86CCD2;} .st1{fill:#2CA9B2;} .st2{fill:#EC6B69;} .st3{fill:#FFFFFF;} .st4{fill:#0B6C85;} .st5{font-family:&apos;Helvetica-Bold&apos;;} .st6{font-size:21.9092px;} .st7{font-size:32.7825px;}</style><path class="st0" d="M189 95c0 6.1-.6 12.1-1.7 17.8-.5 2.4-1 4.8-1.7 7.2-.2.9-.5 1.7-.7 2.6-.3 1-.6 2-1 3-3.8 10.9-9.5 21-16.8 29.6C149.9 175.9 124 189 95 189c-2.6 0-5.1-.1-7.7-.3-1.3-.1-2.6-.2-4-.4-2.1-.3-4.3-.6-6.4-1-1.4-.3-2.8-.6-4.3-.9-1.9-.5-3.7-1-5.5-1.5-17.5-5.4-32.8-15.8-44.3-29.5C9.2 139 1 117.9 1 95 1 43.1 43.1 1 95 1c47.6 0 87 35.4 93.1 81.3.6 4.2.9 8.4.9 12.7z"/><path class="st1" d="M188.9 98.5c-.2 4.9-.7 9.6-1.6 14.3-.5 2.4-1 4.8-1.7 7.2-.2.9-.5 1.7-.7 2.6-.3 1-.6 2-1 3-3.8 10.9-9.5 21-16.8 29.6-16 19.2-39.6 31.8-66.1 33.5L52.9 142 140 50.1l48.9 48.4z"/><path class="st2" d="M112.4 107.2l-16 25.2-.3.4-1 1.5L80.8 157c-.5.8-1.4 1.2-2.4 1.1-.9-.1-1.7-.8-2.1-1.7l-5.2-15.1-15.8 1.7c-1 .1-1.9-.3-2.4-1.2-.5-.8-.5-1.8 0-2.6l10-15.7.8-1.2 20.9-32.8L96.4 97l16 10.2z"/><path class="st2" d="M139.8 142c-.5.8-1.4 1.3-2.4 1.2l-15.8-1.7-5.2 15.1c-.3.9-1.1 1.6-2.1 1.7-.9.1-1.9-.3-2.4-1.1l-14.4-22.6-1-1.5-.3-.4-16-25.2 16-10.2 11.8-7.5 20.9 32.8.8 1.2 10 15.7c.6.6.6 1.7.1 2.5z"/><path class="st3" d="M110.6 133.5c-2.8 0-5.5-1.3-8.2-2.7-2.2-1.1-4.4-2.2-6.1-2.2-1.7 0-3.9 1.1-6.1 2.2-2.6 1.3-5.4 2.7-8.2 2.7-.9 0-1.7-.1-2.4-.4-3.8-1.2-5.7-5-7.5-8.3-1.1-2.1-2.2-4.2-3.4-5.1-1.3-.9-3.7-1.3-6-1.7-3.7-.6-7.8-1.3-10.1-4.5-2.3-3.1-1.7-7.3-1.2-10.9.3-2.3.7-4.8.2-6.3-.5-1.4-2.1-3.1-3.7-4.7-2.6-2.7-5.6-5.7-5.6-9.8 0-4 3-7.1 5.6-9.8 1.6-1.6 3.3-3.3 3.7-4.7.5-1.5.1-4-.2-6.3-.5-3.7-1.1-7.8 1.2-10.9 2.3-3.2 6.5-3.9 10.1-4.5 2.3-.4 4.7-.8 6-1.7 1.2-.9 2.4-3 3.4-5.1 1.7-3.3 3.7-7.1 7.5-8.3.8-.2 1.6-.4 2.4-.4 2.8 0 5.5 1.3 8.2 2.7 2.2 1.1 4.4 2.2 6.1 2.2 1.7 0 3.9-1.1 6.1-2.2 2.6-1.3 5.4-2.7 8.2-2.7.9 0 1.7.1 2.4.4 3.8 1.2 5.7 5 7.5 8.3 1.1 2.1 2.2 4.2 3.4 5.1 1.3.9 3.7 1.3 6 1.7 3.7.6 7.8 1.3 10.1 4.5 2.3 3.1 1.7 7.3 1.2 10.9-.3 2.3-.7 4.8-.2 6.3.5 1.4 2.1 3.1 3.7 4.7 2.6 2.7 5.6 5.7 5.6 9.8 0 4-3 7.1-5.6 9.8-1.6 1.6-3.3 3.3-3.7 4.7-.5 1.5-.1 4 .2 6.3.5 3.7 1.1 7.8-1.2 10.9-2.3 3.2-6.5 3.9-10.1 4.5-2.3.4-4.7.8-6 1.7-1.2.9-2.4 3-3.4 5.1-1.7 3.3-3.7 7.1-7.5 8.3-.7.3-1.5.4-2.4.4z"/><path class="st4" d="M147.6 81.8c0 5.1-7.7 9-9.2 13.6-1.6 4.8 2.3 12.5-.6 16.5s-11.4 2.7-15.5 5.6c-4 2.9-5.3 11.4-10.1 13-4.6 1.5-10.7-4.6-15.8-4.6-5.1 0-11.2 6.1-15.8 4.6-4.8-1.6-6.1-10.1-10.1-13-4-2.9-12.5-1.6-15.5-5.6-2.9-4 1-11.6-.6-16.5-1.5-4.6-9.2-8.5-9.2-13.6s7.7-9 9.2-13.6c1.6-4.8-2.3-12.5.6-16.5s11.4-2.7 15.5-5.6c4-2.9 5.3-11.4 10.1-13 4.6-1.5 10.7 4.6 15.8 4.6 5.1 0 11.2-6.1 15.8-4.6 4.8 1.6 6.1 10.1 10.1 13 4 2.9 12.5 1.6 15.5 5.6 2.9 4-1 11.6.6 16.5 1.5 4.6 9.2 8.5 9.2 13.6z"/><path class="st3" d="M131.8 81.8c0 1.3-.1 2.6-.2 3.8v.1c-1.6 14.7-12.2 26.7-26.2 30.4-2.4.6-4.8 1-7.3 1.1h-1.7c-1.8 0-3.5-.1-5.3-.4-17.1-2.5-30.2-17.3-30.2-35 0-19.6 15.9-35.4 35.4-35.4 18.8 0 34.2 14.7 35.4 33.2.1.7.1 1.5.1 2.2z"/><text transform="translate(76.296 77.494)"><tspan x="0" y="0" class="st4 st5 st6">Top</tspan><tspan x="11" y="28.6" class="st4 st5 st7">5</tspan></text></svg>